<svg xmlns="http://www.w3.org/2000/svg" xmlns:xlink="http://www.w3.org/1999/xlink" width="500" height="500" preserveAspectRatio="xMidYMid meet" version="1.0" viewBox="0 0 375 375" zoomAndPan="magnify"><defs><clipPath id="d24fe339b8"><path d="M 247 105 L 259 105 L 259 122 L 247 122 Z M 247 105" clip-rule="nonzero"/></clipPath><clipPath id="db84809ec3"><path d="M 212.648438 100.269531 L 297.425781 111.359375 L 291.394531 157.464844 L 206.617188 146.375 Z M 212.648438 100.269531" clip-rule="nonzero"/></clipPath><clipPath id="fd64bb5de6"><path d="M 212.648438 100.269531 L 297.425781 111.359375 L 291.394531 157.464844 L 206.617188 146.375 Z M 212.648438 100.269531" clip-rule="nonzero"/></clipPath><clipPath id="a022dba997"><path d="M 214 142 L 285 142 L 285 153 L 214 153 Z M 214 142" clip-rule="nonzero"/></clipPath><clipPath id="6734c9091c"><path d="M 212.648438 100.269531 L 297.425781 111.359375 L 291.394531 157.464844 L 206.617188 146.375 Z M 212.648438 100.269531" clip-rule="nonzero"/></clipPath><clipPath id="a53c75f44e"><path d="M 212.648438 100.269531 L 297.425781 111.359375 L 291.394531 157.464844 L 206.617188 146.375 Z M 212.648438 100.269531" clip-rule="nonzero"/></clipPath><clipPath id="1e75b63428"><path d="M 210 144 L 289 144 L 289 156 L 210 156 Z M 210 144" clip-rule="nonzero"/></clipPath><clipPath id="39234da843"><path d="M 212.648438 100.269531 L 297.425781 111.359375 L 291.394531 157.464844 L 206.617188 146.375 Z M 212.648438 100.269531" clip-rule="nonzero"/></clipPath><clipPath id="de6a89613f"><path d="M 212.648438 100.269531 L 297.425781 111.359375 L 291.394531 157.464844 L 206.617188 146.375 Z M 212.648438 100.269531" clip-rule="nonzero"/></clipPath><clipPath id="dc5d2849bc"><path d="M 206 120 L 292 120 L 292 158 L 206 158 Z M 206 120" clip-rule="nonzero"/></clipPath><clipPath id="193ba17123"><path d="M 212.648438 100.269531 L 297.425781 111.359375 L 291.394531 157.464844 L 206.617188 146.375 Z M 212.648438 100.269531" clip-rule="nonzero"/></clipPath><clipPath id="de98023fa4"><path d="M 212.648438 100.269531 L 297.425781 111.359375 L 291.394531 157.464844 L 206.617188 146.375 Z M 212.648438 100.269531" clip-rule="nonzero"/></clipPath></defs><g fill="#3b7821" fill-opacity="1"><g><g><path d="M 105.707031 -123.207031 C 117.257812 -123.207031 126.707031 -133.007812 126.707031 -144.558594 C 126.707031 -156.460938 117.257812 -165.910156 105.707031 -165.910156 C 93.804688 -165.910156 84.355469 -156.460938 84.355469 -144.558594 C 84.355469 -133.007812 93.804688 -123.207031 105.707031 -123.207031 Z M 61.953125 -39.902344 C 59.851562 -40.953125 55.304688 -44.800781 55.304688 -56.003906 L 55.304688 -103.605469 C 55.304688 -114.808594 59.851562 -118.65625 61.953125 -119.707031 C 35.351562 -117.257812 15.75 -100.105469 15.75 -80.503906 L 15.75 -79.105469 C 15.75 -59.851562 35.351562 -42.703125 61.953125 -39.902344 Z M 77.003906 -39.902344 C 103.257812 -42.703125 122.855469 -59.851562 122.855469 -79.105469 L 122.855469 -80.503906 C 122.855469 -100.105469 103.257812 -117.257812 77.003906 -119.707031 C 79.453125 -118.65625 83.65625 -114.808594 83.65625 -103.605469 L 83.65625 -56.003906 C 83.65625 -44.800781 79.453125 -40.953125 77.003906 -39.902344 Z M 127.058594 14.351562 C 127.058594 -0.699219 121.105469 -10.5 111.304688 -17.5 C 100.804688 -24.5 85.753906 -27.652344 68.253906 -29.050781 C 51.453125 -30.453125 33.25 -31.5 25.550781 -37.453125 C 22.050781 -40.253906 20.652344 -43.753906 22.050781 -49.003906 C 22.050781 -49.003906 10.5 -40.953125 10.5 -28 C 10.5 -17.851562 15.050781 -11.199219 22.050781 -5.949219 C 32.550781 1.75 49.351562 4.898438 65.105469 7 C 78.054688 8.402344 90.304688 11.199219 98.707031 16.449219 C 105.007812 21 108.855469 26.953125 108.855469 36.402344 C 108.855469 51.453125 93.457031 57.054688 92.40625 57.402344 C 93.804688 57.054688 127.058594 44.800781 127.058594 14.351562 Z M 38.851562 3.5 C 38.851562 3.5 10.5 5.25 9.800781 28.351562 L 9.800781 28.703125 C 10.5 51.453125 38.851562 56.351562 38.851562 56.351562 C 32.902344 53.554688 27.300781 47.253906 27.300781 29.75 C 27.300781 12.25 32.902344 5.949219 38.851562 3.5 Z M 38.851562 3.5" transform="translate(71.538805, 205.474437)"/></g></g></g><g fill="#3b7821" fill-opacity="1"><g><g><path d="M 77.746094 4.6875 C 90.246094 5.078125 102.359375 1.5625 112.90625 -4.6875 C 82.433594 0 58.210938 -30.082031 58.210938 -68.367188 C 58.210938 -99.621094 72.667969 -125.796875 92.199219 -132.050781 C 87.511719 -133.222656 82.824219 -133.613281 77.746094 -133.613281 C 39.457031 -133.613281 8.203125 -102.75 8.203125 -64.460938 C 8.203125 -26.175781 39.457031 4.6875 77.746094 4.6875 Z M 102.359375 -74.621094 C 115.640625 -74.621094 126.1875 -85.167969 126.1875 -98.449219 C 126.1875 -111.34375 115.640625 -122.28125 102.359375 -122.28125 C 89.464844 -122.28125 78.917969 -111.34375 78.917969 -98.449219 C 78.917969 -85.167969 89.464844 -74.621094 102.359375 -74.621094 Z M 102.359375 -74.621094" transform="translate(157.18684, 294.312277)"/></g></g></g><g clip-path="url(#d24fe339b8)"><g clip-path="url(#db84809ec3)"><g clip-path="url(#fd64bb5de6)"><path fill="#535947" fill-opacity="1" fill-rule="nonzero" d="M 252.914062 121.550781 C 252.667969 121.519531 252.496094 121.296875 252.527344 121.050781 C 252.613281 120.332031 252.949219 117.75 253.085938 116.988281 C 253.230469 116.132812 254.222656 115.28125 255.097656 114.53125 C 255.488281 114.195312 255.859375 113.878906 256.105469 113.601562 C 256.867188 112.714844 257.226562 111.671875 257.136719 110.585938 C 257.019531 109.21875 256.257812 108.148438 255.640625 107.648438 C 254.546875 106.757812 252.910156 106.492188 251.480469 106.976562 C 250.613281 107.273438 249.871094 107.78125 249.15625 108.273438 C 248.667969 108.605469 248.28125 108.867188 247.882812 109.089844 C 247.664062 109.214844 247.390625 109.132812 247.273438 108.914062 C 247.152344 108.695312 247.234375 108.421875 247.449219 108.300781 C 247.828125 108.089844 248.191406 107.84375 248.570312 107.585938 C 249.382812 107.027344 250.210938 106.457031 251.199219 106.125 C 252.910156 105.542969 254.875 105.867188 256.203125 106.945312 C 256.957031 107.558594 257.886719 108.855469 258.03125 110.507812 C 258.140625 111.84375 257.707031 113.117188 256.773438 114.191406 C 256.488281 114.523438 256.09375 114.859375 255.675781 115.21875 C 255.03125 115.769531 254.054688 116.605469 253.964844 117.144531 C 253.84375 117.835938 253.515625 120.332031 253.414062 121.15625 C 253.386719 121.402344 253.164062 121.578125 252.917969 121.550781 C 252.914062 121.550781 252.914062 121.550781 252.914062 121.550781"/></g></g></g><g clip-path="url(#a022dba997)"><g clip-path="url(#6734c9091c)"><g clip-path="url(#a53c75f44e)"><path fill="#535947" fill-opacity="1" fill-rule="nonzero" d="M 284.058594 152.730469 L 214.925781 143.6875 L 215.042969 142.792969 L 284.171875 151.835938 L 284.058594 152.730469"/></g></g></g><g clip-path="url(#1e75b63428)"><g clip-path="url(#39234da843)"><g clip-path="url(#de6a89613f)"><path fill="#535947" fill-opacity="1" fill-rule="nonzero" d="M 288.25 155.824219 L 210.078125 145.601562 L 210.195312 144.707031 L 288.367188 154.929688 L 288.25 155.824219"/></g></g></g><g clip-path="url(#dc5d2849bc)"><g clip-path="url(#193ba17123)"><g clip-path="url(#de98023fa4)"><path fill="#535947" fill-opacity="1" fill-rule="nonzero" d="M 252.121094 128.117188 L 252.320312 128.261719 L 290.078125 156.121094 C 290.207031 156.230469 290.421875 156.367188 290.582031 156.425781 C 290.59375 156.34375 290.609375 156.199219 290.601562 155.976562 C 290.515625 153.429688 290.242188 152.648438 283.558594 147.828125 C 281.828125 146.582031 279.054688 144.71875 276.121094 142.742188 L 275.90625 142.597656 C 271.734375 139.796875 267.003906 136.621094 265.671875 135.4375 C 263.304688 133.335938 263.304688 133.335938 258.980469 125.003906 C 258.332031 123.761719 256.359375 122.175781 253.5625 121.632812 L 253.371094 121.59375 C 253.101562 121.53125 252.847656 121.5 252.59375 121.492188 L 252.390625 121.480469 C 249.550781 121.285156 247.238281 122.3125 246.292969 123.34375 C 239.96875 130.285156 239.96875 130.285156 237.140625 131.707031 C 235.578125 132.492188 230.40625 134.273438 225.410156 135.996094 C 222.292969 137.070312 218.777344 138.277344 216.671875 139.078125 C 208.972656 142.019531 208.503906 142.707031 207.769531 145.140625 C 207.707031 145.347656 207.683594 145.492188 207.675781 145.582031 C 207.855469 145.5625 208.09375 145.484375 208.230469 145.421875 Z M 290.574219 157.351562 C 290.074219 157.285156 289.546875 156.851562 289.527344 156.835938 L 251.988281 129.136719 L 208.578125 146.25 C 208.539062 146.269531 207.9375 146.542969 207.445312 146.476562 C 207.207031 146.445312 207.027344 146.34375 206.914062 146.171875 C 206.734375 145.898438 206.738281 145.464844 206.914062 144.882812 C 207.824219 141.863281 208.972656 141.054688 216.355469 138.234375 C 218.476562 137.429688 222 136.21875 225.109375 135.148438 C 230.089844 133.429688 235.230469 131.660156 236.742188 130.898438 C 239.421875 129.550781 239.421875 129.550781 245.636719 122.734375 C 246.722656 121.546875 249.316406 120.367188 252.453125 120.582031 L 252.636719 120.59375 C 252.917969 120.601562 253.246094 120.640625 253.558594 120.714844 L 253.738281 120.75 C 256.820312 121.347656 259.027344 123.15625 259.769531 124.585938 C 264.023438 132.769531 264.023438 132.769531 266.265625 134.761719 C 267.550781 135.902344 272.253906 139.0625 276.40625 141.851562 L 276.617188 141.992188 C 279.558594 143.972656 282.339844 145.839844 284.078125 147.09375 C 290.488281 151.714844 291.390625 152.792969 291.496094 155.945312 C 291.515625 156.546875 291.410156 156.964844 291.171875 157.183594 C 291.066406 157.285156 290.875 157.390625 290.574219 157.351562"/></g></g></g><g fill="#3b7821" fill-opacity="1"><g><g><path d="M 7.625 -6.953125 C 7.53125 -7.191406 7.421875 -7.394531 7.296875 -7.5625 C 7.171875 -7.726562 7.023438 -7.863281 6.859375 -7.96875 C 6.691406 -8.070312 6.503906 -8.144531 6.296875 -8.1875 C 6.097656 -8.238281 5.875 -8.265625 5.625 -8.265625 C 5.238281 -8.265625 4.894531 -8.195312 4.59375 -8.0625 C 4.289062 -7.925781 4.019531 -7.742188 3.78125 -7.515625 C 3.539062 -7.285156 3.332031 -7.019531 3.15625 -6.71875 C 2.976562 -6.425781 2.828125 -6.117188 2.703125 -5.796875 C 2.597656 -5.535156 2.507812 -5.273438 2.4375 -5.015625 C 2.363281 -4.753906 2.304688 -4.503906 2.265625 -4.265625 C 2.222656 -4.023438 2.191406 -3.796875 2.171875 -3.578125 C 2.148438 -3.367188 2.140625 -3.1875 2.140625 -3.03125 C 2.140625 -2.675781 2.175781 -2.363281 2.25 -2.09375 C 2.332031 -1.820312 2.457031 -1.597656 2.625 -1.421875 C 2.789062 -1.242188 3.007812 -1.109375 3.28125 -1.015625 C 3.550781 -0.929688 3.878906 -0.890625 4.265625 -0.890625 C 4.441406 -0.890625 4.609375 -0.898438 4.765625 -0.921875 C 4.929688 -0.953125 5.09375 -0.988281 5.25 -1.03125 C 5.414062 -1.082031 5.582031 -1.140625 5.75 -1.203125 C 5.925781 -1.265625 6.109375 -1.335938 6.296875 -1.421875 L 6.75 -3.53125 L 4.5625 -3.53125 L 4.796875 -4.640625 L 8.171875 -4.640625 L 7.34375 -0.703125 C 7.070312 -0.566406 6.804688 -0.441406 6.546875 -0.328125 C 6.285156 -0.222656 6.023438 -0.128906 5.765625 -0.046875 C 5.503906 0.0234375 5.238281 0.0820312 4.96875 0.125 C 4.707031 0.164062 4.429688 0.1875 4.140625 0.1875 C 3.597656 0.1875 3.117188 0.125 2.703125 0 C 2.296875 -0.125 1.953125 -0.316406 1.671875 -0.578125 C 1.398438 -0.847656 1.195312 -1.1875 1.0625 -1.59375 C 0.925781 -2.007812 0.859375 -2.503906 0.859375 -3.078125 C 0.859375 -3.535156 0.910156 -4.03125 1.015625 -4.5625 C 1.117188 -5.101562 1.273438 -5.640625 1.484375 -6.171875 C 1.660156 -6.585938 1.878906 -6.988281 2.140625 -7.375 C 2.398438 -7.757812 2.703125 -8.097656 3.046875 -8.390625 C 3.390625 -8.679688 3.78125 -8.910156 4.21875 -9.078125 C 4.65625 -9.253906 5.144531 -9.34375 5.6875 -9.34375 C 6.46875 -9.34375 7.109375 -9.195312 7.609375 -8.90625 C 8.117188 -8.613281 8.503906 -8.148438 8.765625 -7.515625 Z M 7.625 -6.953125" transform="translate(110.004782, 236.963408)"/></g></g></g><g fill="#3b7821" fill-opacity="1"><g><g><path d="M 5.546875 0 L 4.03125 -3.734375 L 2.421875 -3.734375 L 1.640625 0 L 0.453125 0 L 2.375 -9.15625 L 5.09375 -9.15625 C 5.53125 -9.15625 5.921875 -9.125 6.265625 -9.0625 C 6.609375 -9 6.894531 -8.882812 7.125 -8.71875 C 7.363281 -8.5625 7.539062 -8.347656 7.65625 -8.078125 C 7.78125 -7.804688 7.84375 -7.46875 7.84375 -7.0625 C 7.84375 -6.90625 7.820312 -6.722656 7.78125 -6.515625 C 7.75 -6.304688 7.691406 -6.085938 7.609375 -5.859375 C 7.535156 -5.640625 7.4375 -5.421875 7.3125 -5.203125 C 7.1875 -4.984375 7.035156 -4.785156 6.859375 -4.609375 C 6.753906 -4.515625 6.640625 -4.425781 6.515625 -4.34375 C 6.390625 -4.269531 6.253906 -4.203125 6.109375 -4.140625 C 5.972656 -4.078125 5.832031 -4.023438 5.6875 -3.984375 C 5.550781 -3.941406 5.410156 -3.90625 5.265625 -3.875 L 6.890625 0 Z M 4.15625 -4.828125 C 4.582031 -4.828125 4.941406 -4.863281 5.234375 -4.9375 C 5.523438 -5.007812 5.765625 -5.140625 5.953125 -5.328125 C 6.054688 -5.429688 6.144531 -5.550781 6.21875 -5.6875 C 6.300781 -5.820312 6.363281 -5.960938 6.40625 -6.109375 C 6.457031 -6.265625 6.492188 -6.421875 6.515625 -6.578125 C 6.546875 -6.742188 6.5625 -6.90625 6.5625 -7.0625 C 6.5625 -7.25 6.523438 -7.40625 6.453125 -7.53125 C 6.390625 -7.664062 6.289062 -7.773438 6.15625 -7.859375 C 6.019531 -7.941406 5.847656 -8 5.640625 -8.03125 C 5.441406 -8.0625 5.203125 -8.078125 4.921875 -8.078125 L 3.34375 -8.078125 L 2.65625 -4.828125 Z M 4.15625 -4.828125" transform="translate(120.193324, 236.963408)"/></g></g></g><g fill="#3b7821" fill-opacity="1"><g><g><path d="M 0.453125 0 L 2.375 -9.15625 L 7.875 -9.15625 L 7.640625 -8.046875 L 3.34375 -8.046875 L 2.78125 -5.375 L 6.453125 -5.375 L 6.21875 -4.265625 L 2.546875 -4.265625 L 1.875 -1.109375 L 6.171875 -1.109375 L 5.9375 0 Z M 0.453125 0" transform="translate(129.389664, 236.963408)"/></g></g></g><g fill="#3b7821" fill-opacity="1"><g><g><path d="M 0.453125 0 L 2.375 -9.15625 L 7.875 -9.15625 L 7.640625 -8.046875 L 3.34375 -8.046875 L 2.78125 -5.375 L 6.453125 -5.375 L 6.21875 -4.265625 L 2.546875 -4.265625 L 1.875 -1.109375 L 6.171875 -1.109375 L 5.9375 0 Z M 0.453125 0" transform="translate(138.043598, 236.963408)"/></g></g></g><g fill="#3b7821" fill-opacity="1"><g><g><path d="M 5.75 0 L 3.265625 -7.859375 L 1.59375 0 L 0.453125 0 L 2.375 -9.15625 L 4.03125 -9.15625 L 6.328125 -1.96875 L 7.859375 -9.15625 L 9.015625 -9.15625 L 7.078125 0 Z M 5.75 0" transform="translate(146.697534, 236.963408)"/></g></g></g><g fill="#3b7821" fill-opacity="1"><g><g><path d="M 7.546875 -1.5625 C 7.347656 -1.3125 7.132812 -1.078125 6.90625 -0.859375 C 6.675781 -0.648438 6.414062 -0.46875 6.125 -0.3125 C 5.832031 -0.15625 5.503906 -0.0351562 5.140625 0.046875 C 4.785156 0.140625 4.375 0.1875 3.90625 0.1875 C 3.375 0.1875 2.910156 0.113281 2.515625 -0.03125 C 2.117188 -0.175781 1.789062 -0.382812 1.53125 -0.65625 C 1.28125 -0.9375 1.09375 -1.273438 0.96875 -1.671875 C 0.84375 -2.078125 0.78125 -2.539062 0.78125 -3.0625 C 0.78125 -3.34375 0.796875 -3.632812 0.828125 -3.9375 C 0.859375 -4.25 0.910156 -4.5625 0.984375 -4.875 C 1.054688 -5.1875 1.144531 -5.5 1.25 -5.8125 C 1.351562 -6.132812 1.472656 -6.441406 1.609375 -6.734375 C 1.785156 -7.097656 2 -7.4375 2.25 -7.75 C 2.5 -8.070312 2.789062 -8.347656 3.125 -8.578125 C 3.457031 -8.816406 3.828125 -9.003906 4.234375 -9.140625 C 4.648438 -9.273438 5.109375 -9.34375 5.609375 -9.34375 C 6.035156 -9.34375 6.410156 -9.300781 6.734375 -9.21875 C 7.054688 -9.144531 7.34375 -9.03125 7.59375 -8.875 C 7.84375 -8.726562 8.050781 -8.546875 8.21875 -8.328125 C 8.394531 -8.109375 8.546875 -7.863281 8.671875 -7.59375 L 7.59375 -6.96875 C 7.507812 -7.1875 7.398438 -7.375 7.265625 -7.53125 C 7.140625 -7.695312 6.988281 -7.832031 6.8125 -7.9375 C 6.644531 -8.050781 6.445312 -8.132812 6.21875 -8.1875 C 5.988281 -8.238281 5.726562 -8.265625 5.4375 -8.265625 C 5.125 -8.265625 4.832031 -8.210938 4.5625 -8.109375 C 4.300781 -8.015625 4.054688 -7.878906 3.828125 -7.703125 C 3.609375 -7.523438 3.40625 -7.316406 3.21875 -7.078125 C 3.039062 -6.835938 2.890625 -6.578125 2.765625 -6.296875 C 2.648438 -6.054688 2.546875 -5.800781 2.453125 -5.53125 C 2.367188 -5.257812 2.296875 -4.984375 2.234375 -4.703125 C 2.171875 -4.429688 2.125 -4.15625 2.09375 -3.875 C 2.0625 -3.59375 2.046875 -3.316406 2.046875 -3.046875 C 2.046875 -2.359375 2.207031 -1.828125 2.53125 -1.453125 C 2.851562 -1.078125 3.304688 -0.890625 3.890625 -0.890625 C 4.210938 -0.890625 4.507812 -0.921875 4.78125 -0.984375 C 5.050781 -1.054688 5.296875 -1.15625 5.515625 -1.28125 C 5.742188 -1.40625 5.953125 -1.550781 6.140625 -1.71875 C 6.335938 -1.894531 6.523438 -2.09375 6.703125 -2.3125 Z M 7.546875 -1.5625" transform="translate(107.426658, 252.713407)"/></g></g></g><g fill="#3b7821" fill-opacity="1"><g><g><path d="M 0.453125 0 L 2.375 -9.15625 L 3.578125 -9.15625 L 1.875 -1.109375 L 5.9375 -1.109375 L 5.703125 0 Z M 0.453125 0" transform="translate(117.072795, 252.713407)"/></g></g></g><g fill="#3b7821" fill-opacity="1"><g><g><path d="M 3.84375 0.1875 C 3.269531 0.1875 2.785156 0.109375 2.390625 -0.046875 C 1.992188 -0.203125 1.675781 -0.421875 1.4375 -0.703125 C 1.195312 -0.992188 1.023438 -1.34375 0.921875 -1.75 C 0.828125 -2.15625 0.78125 -2.609375 0.78125 -3.109375 C 0.78125 -3.335938 0.789062 -3.582031 0.8125 -3.84375 C 0.84375 -4.101562 0.882812 -4.375 0.9375 -4.65625 C 0.988281 -4.9375 1.054688 -5.21875 1.140625 -5.5 C 1.222656 -5.78125 1.320312 -6.0625 1.4375 -6.34375 C 1.613281 -6.75 1.816406 -7.132812 2.046875 -7.5 C 2.285156 -7.875 2.566406 -8.195312 2.890625 -8.46875 C 3.210938 -8.738281 3.585938 -8.953125 4.015625 -9.109375 C 4.453125 -9.265625 4.957031 -9.34375 5.53125 -9.34375 C 6.507812 -9.34375 7.253906 -9.066406 7.765625 -8.515625 C 8.273438 -7.972656 8.53125 -7.171875 8.53125 -6.109375 C 8.53125 -5.765625 8.5 -5.359375 8.4375 -4.890625 C 8.375 -4.421875 8.265625 -3.9375 8.109375 -3.4375 C 7.953125 -2.925781 7.753906 -2.445312 7.515625 -2 C 7.273438 -1.5625 6.984375 -1.179688 6.640625 -0.859375 C 6.304688 -0.535156 5.90625 -0.28125 5.4375 -0.09375 C 4.976562 0.09375 4.445312 0.1875 3.84375 0.1875 Z M 2.0625 -3.078125 C 2.0625 -2.671875 2.09375 -2.328125 2.15625 -2.046875 C 2.226562 -1.773438 2.335938 -1.550781 2.484375 -1.375 C 2.640625 -1.207031 2.832031 -1.082031 3.0625 -1 C 3.300781 -0.925781 3.585938 -0.890625 3.921875 -0.890625 C 4.640625 -0.890625 5.234375 -1.117188 5.703125 -1.578125 C 6.179688 -2.046875 6.566406 -2.757812 6.859375 -3.71875 C 6.929688 -3.9375 6.988281 -4.15625 7.03125 -4.375 C 7.082031 -4.601562 7.125 -4.820312 7.15625 -5.03125 C 7.1875 -5.238281 7.207031 -5.4375 7.21875 -5.625 C 7.238281 -5.820312 7.25 -6 7.25 -6.15625 C 7.25 -6.863281 7.101562 -7.390625 6.8125 -7.734375 C 6.53125 -8.085938 6.0625 -8.265625 5.40625 -8.265625 C 5.050781 -8.265625 4.734375 -8.207031 4.453125 -8.09375 C 4.171875 -7.988281 3.921875 -7.835938 3.703125 -7.640625 C 3.484375 -7.453125 3.285156 -7.21875 3.109375 -6.9375 C 2.941406 -6.65625 2.785156 -6.332031 2.640625 -5.96875 C 2.535156 -5.71875 2.445312 -5.457031 2.375 -5.1875 C 2.300781 -4.925781 2.238281 -4.671875 2.1875 -4.421875 C 2.144531 -4.171875 2.113281 -3.929688 2.09375 -3.703125 C 2.070312 -3.472656 2.0625 -3.265625 2.0625 -3.078125 Z M 2.0625 -3.078125" transform="translate(124.985886, 252.713407)"/></g></g></g><g fill="#3b7821" fill-opacity="1"><g><g><path d="M 1.34375 -2.203125 C 1.394531 -2.035156 1.472656 -1.867188 1.578125 -1.703125 C 1.679688 -1.546875 1.816406 -1.40625 1.984375 -1.28125 C 2.148438 -1.164062 2.359375 -1.070312 2.609375 -1 C 2.859375 -0.925781 3.160156 -0.890625 3.515625 -0.890625 C 3.828125 -0.890625 4.117188 -0.925781 4.390625 -1 C 4.671875 -1.082031 4.914062 -1.191406 5.125 -1.328125 C 5.332031 -1.472656 5.492188 -1.644531 5.609375 -1.84375 C 5.734375 -2.039062 5.796875 -2.257812 5.796875 -2.5 C 5.796875 -2.695312 5.773438 -2.867188 5.734375 -3.015625 C 5.703125 -3.171875 5.625 -3.3125 5.5 -3.4375 C 5.382812 -3.5625 5.21875 -3.675781 5 -3.78125 C 4.78125 -3.894531 4.492188 -4.007812 4.140625 -4.125 C 3.597656 -4.28125 3.148438 -4.4375 2.796875 -4.59375 C 2.453125 -4.75 2.175781 -4.921875 1.96875 -5.109375 C 1.769531 -5.296875 1.628906 -5.503906 1.546875 -5.734375 C 1.472656 -5.960938 1.4375 -6.226562 1.4375 -6.53125 C 1.4375 -6.863281 1.503906 -7.195312 1.640625 -7.53125 C 1.773438 -7.875 1.984375 -8.175781 2.265625 -8.4375 C 2.546875 -8.707031 2.90625 -8.925781 3.34375 -9.09375 C 3.789062 -9.257812 4.316406 -9.34375 4.921875 -9.34375 C 5.316406 -9.34375 5.664062 -9.304688 5.96875 -9.234375 C 6.28125 -9.160156 6.554688 -9.050781 6.796875 -8.90625 C 7.035156 -8.769531 7.242188 -8.59375 7.421875 -8.375 C 7.597656 -8.164062 7.753906 -7.921875 7.890625 -7.640625 L 6.828125 -7.046875 C 6.679688 -7.421875 6.4375 -7.71875 6.09375 -7.9375 C 5.757812 -8.15625 5.328125 -8.265625 4.796875 -8.265625 C 4.421875 -8.265625 4.101562 -8.21875 3.84375 -8.125 C 3.582031 -8.03125 3.367188 -7.910156 3.203125 -7.765625 C 3.035156 -7.617188 2.910156 -7.445312 2.828125 -7.25 C 2.753906 -7.0625 2.71875 -6.867188 2.71875 -6.671875 C 2.71875 -6.515625 2.734375 -6.375 2.765625 -6.25 C 2.804688 -6.132812 2.882812 -6.023438 3 -5.921875 C 3.125 -5.828125 3.304688 -5.726562 3.546875 -5.625 C 3.785156 -5.519531 4.113281 -5.398438 4.53125 -5.265625 C 5.019531 -5.109375 5.425781 -4.945312 5.75 -4.78125 C 6.082031 -4.613281 6.347656 -4.429688 6.546875 -4.234375 C 6.742188 -4.035156 6.878906 -3.8125 6.953125 -3.5625 C 7.035156 -3.3125 7.078125 -3.023438 7.078125 -2.703125 C 7.078125 -2.191406 6.972656 -1.753906 6.765625 -1.390625 C 6.566406 -1.035156 6.296875 -0.738281 5.953125 -0.5 C 5.617188 -0.257812 5.234375 -0.0859375 4.796875 0.015625 C 4.359375 0.128906 3.90625 0.1875 3.4375 0.1875 C 2.90625 0.1875 2.453125 0.132812 2.078125 0.03125 C 1.710938 -0.0625 1.40625 -0.191406 1.15625 -0.359375 C 0.90625 -0.535156 0.707031 -0.734375 0.5625 -0.953125 C 0.414062 -1.179688 0.296875 -1.425781 0.203125 -1.6875 Z M 1.34375 -2.203125" transform="translate(135.00906, 252.713407)"/></g></g></g><g fill="#3b7821" fill-opacity="1"><g><g><path d="M 0.453125 0 L 2.375 -9.15625 L 7.875 -9.15625 L 7.640625 -8.046875 L 3.34375 -8.046875 L 2.78125 -5.375 L 6.453125 -5.375 L 6.21875 -4.265625 L 2.546875 -4.265625 L 1.875 -1.109375 L 6.171875 -1.109375 L 5.9375 0 Z M 0.453125 0" transform="translate(144.139253, 252.713407)"/></g></g></g><g fill="#3b7821" fill-opacity="1"><g><g><path d="M 5.40625 -8.046875 L 3.703125 0 L 2.5 0 L 4.21875 -8.046875 L 1.25 -8.046875 L 1.46875 -9.15625 L 8.625 -9.15625 L 8.390625 -8.046875 Z M 5.40625 -8.046875" transform="translate(152.793189, 252.713407)"/></g></g></g><g fill="#3b7821" fill-opacity="1"><g><g><path d="M 1.8125 -2.796875 C 1.78125 -2.671875 1.757812 -2.546875 1.75 -2.421875 C 1.738281 -2.296875 1.734375 -2.179688 1.734375 -2.078125 C 1.734375 -1.648438 1.832031 -1.347656 2.03125 -1.171875 C 2.226562 -0.992188 2.535156 -0.90625 2.953125 -0.90625 C 3.265625 -0.90625 3.546875 -0.960938 3.796875 -1.078125 C 4.046875 -1.203125 4.28125 -1.378906 4.5 -1.609375 L 5.234375 -0.84375 C 5.085938 -0.675781 4.929688 -0.53125 4.765625 -0.40625 C 4.597656 -0.28125 4.414062 -0.171875 4.21875 -0.078125 C 4.03125 0.00390625 3.820312 0.0664062 3.59375 0.109375 C 3.363281 0.160156 3.109375 0.1875 2.828125 0.1875 C 2.421875 0.1875 2.066406 0.128906 1.765625 0.015625 C 1.460938 -0.0859375 1.210938 -0.234375 1.015625 -0.421875 C 0.816406 -0.617188 0.671875 -0.851562 0.578125 -1.125 C 0.484375 -1.40625 0.4375 -1.722656 0.4375 -2.078125 C 0.4375 -2.328125 0.457031 -2.578125 0.5 -2.828125 C 0.539062 -3.085938 0.597656 -3.347656 0.671875 -3.609375 C 0.753906 -3.867188 0.851562 -4.117188 0.96875 -4.359375 C 1.09375 -4.609375 1.226562 -4.84375 1.375 -5.0625 C 1.507812 -5.25 1.660156 -5.421875 1.828125 -5.578125 C 1.992188 -5.734375 2.175781 -5.863281 2.375 -5.96875 C 2.582031 -6.082031 2.8125 -6.164062 3.0625 -6.21875 C 3.3125 -6.28125 3.582031 -6.3125 3.875 -6.3125 C 4.238281 -6.3125 4.550781 -6.265625 4.8125 -6.171875 C 5.082031 -6.078125 5.304688 -5.941406 5.484375 -5.765625 C 5.671875 -5.597656 5.804688 -5.390625 5.890625 -5.140625 C 5.972656 -4.890625 6.015625 -4.609375 6.015625 -4.296875 C 6.015625 -4.242188 6.007812 -4.1875 6 -4.125 C 6 -4.0625 5.992188 -3.988281 5.984375 -3.90625 C 5.984375 -3.832031 5.976562 -3.753906 5.96875 -3.671875 C 5.957031 -3.597656 5.945312 -3.53125 5.9375 -3.46875 L 5.78125 -2.796875 Z M 4.75 -3.734375 C 4.769531 -3.828125 4.78125 -3.921875 4.78125 -4.015625 C 4.789062 -4.117188 4.796875 -4.210938 4.796875 -4.296875 C 4.796875 -4.617188 4.71875 -4.863281 4.5625 -5.03125 C 4.40625 -5.207031 4.144531 -5.296875 3.78125 -5.296875 C 3.5 -5.296875 3.257812 -5.25 3.0625 -5.15625 C 2.863281 -5.0625 2.691406 -4.921875 2.546875 -4.734375 C 2.441406 -4.609375 2.34375 -4.457031 2.25 -4.28125 C 2.164062 -4.113281 2.09375 -3.929688 2.03125 -3.734375 Z M 4.75 -3.734375" transform="translate(128.530202, 287.115205)"/></g></g></g><g fill="#3b7821" fill-opacity="1"><g><g><path d="M 1.09375 -1.53125 C 1.21875 -1.300781 1.382812 -1.128906 1.59375 -1.015625 C 1.800781 -0.910156 2.066406 -0.859375 2.390625 -0.859375 C 2.578125 -0.859375 2.753906 -0.875 2.921875 -0.90625 C 3.085938 -0.9375 3.234375 -0.988281 3.359375 -1.0625 C 3.484375 -1.132812 3.582031 -1.222656 3.65625 -1.328125 C 3.726562 -1.429688 3.765625 -1.550781 3.765625 -1.6875 C 3.765625 -1.78125 3.75 -1.863281 3.71875 -1.9375 C 3.695312 -2.007812 3.644531 -2.078125 3.5625 -2.140625 C 3.488281 -2.210938 3.375 -2.28125 3.21875 -2.34375 C 3.0625 -2.414062 2.851562 -2.492188 2.59375 -2.578125 C 2.257812 -2.671875 1.984375 -2.773438 1.765625 -2.890625 C 1.546875 -3.003906 1.367188 -3.128906 1.234375 -3.265625 C 1.109375 -3.398438 1.019531 -3.550781 0.96875 -3.71875 C 0.914062 -3.882812 0.890625 -4.070312 0.890625 -4.28125 C 0.890625 -4.550781 0.941406 -4.8125 1.046875 -5.0625 C 1.160156 -5.3125 1.320312 -5.523438 1.53125 -5.703125 C 1.75 -5.890625 2.015625 -6.035156 2.328125 -6.140625 C 2.640625 -6.253906 3.003906 -6.3125 3.421875 -6.3125 C 3.984375 -6.3125 4.4375 -6.21875 4.78125 -6.03125 C 5.125 -5.851562 5.398438 -5.59375 5.609375 -5.25 L 4.546875 -4.59375 C 4.515625 -4.6875 4.460938 -4.769531 4.390625 -4.84375 C 4.328125 -4.925781 4.242188 -5 4.140625 -5.0625 C 4.035156 -5.125 3.910156 -5.171875 3.765625 -5.203125 C 3.628906 -5.242188 3.472656 -5.265625 3.296875 -5.265625 C 3.109375 -5.265625 2.941406 -5.242188 2.796875 -5.203125 C 2.648438 -5.160156 2.523438 -5.101562 2.421875 -5.03125 C 2.328125 -4.957031 2.253906 -4.867188 2.203125 -4.765625 C 2.160156 -4.671875 2.140625 -4.578125 2.140625 -4.484375 C 2.140625 -4.398438 2.148438 -4.316406 2.171875 -4.234375 C 2.191406 -4.160156 2.238281 -4.085938 2.3125 -4.015625 C 2.382812 -3.953125 2.484375 -3.890625 2.609375 -3.828125 C 2.734375 -3.773438 2.894531 -3.71875 3.09375 -3.65625 C 3.457031 -3.550781 3.765625 -3.441406 4.015625 -3.328125 C 4.265625 -3.222656 4.460938 -3.097656 4.609375 -2.953125 C 4.753906 -2.816406 4.859375 -2.65625 4.921875 -2.46875 C 4.984375 -2.289062 5.015625 -2.085938 5.015625 -1.859375 C 5.015625 -1.566406 4.957031 -1.296875 4.84375 -1.046875 C 4.726562 -0.804688 4.554688 -0.59375 4.328125 -0.40625 C 4.097656 -0.226562 3.8125 -0.0859375 3.46875 0.015625 C 3.132812 0.128906 2.75 0.1875 2.3125 0.1875 C 1.96875 0.1875 1.671875 0.15625 1.421875 0.09375 C 1.171875 0.0390625 0.953125 -0.03125 0.765625 -0.125 C 0.585938 -0.21875 0.4375 -0.332031 0.3125 -0.46875 C 0.195312 -0.601562 0.101562 -0.75 0.03125 -0.90625 Z M 1.09375 -1.53125" transform="translate(135.953916, 287.115205)"/></g></g></g><g fill="#3b7821" fill-opacity="1"><g><g><path d="M 3.40625 0 C 3.21875 0.0625 3.019531 0.109375 2.8125 0.140625 C 2.601562 0.171875 2.410156 0.1875 2.234375 0.1875 C 1.953125 0.1875 1.71875 0.148438 1.53125 0.078125 C 1.34375 0.015625 1.1875 -0.0703125 1.0625 -0.1875 C 0.9375 -0.3125 0.84375 -0.453125 0.78125 -0.609375 C 0.726562 -0.773438 0.703125 -0.960938 0.703125 -1.171875 C 0.703125 -1.296875 0.707031 -1.429688 0.71875 -1.578125 C 0.738281 -1.722656 0.765625 -1.867188 0.796875 -2.015625 L 1.46875 -5.109375 L 0.65625 -5.109375 L 0.875 -6.140625 L 1.671875 -6.140625 L 2.046875 -7.84375 L 3.28125 -7.84375 L 2.921875 -6.140625 L 4.375 -6.140625 L 4.171875 -5.109375 L 2.703125 -5.109375 L 2.046875 -2.046875 C 2.015625 -1.921875 1.988281 -1.800781 1.96875 -1.6875 C 1.957031 -1.582031 1.953125 -1.492188 1.953125 -1.421875 C 1.953125 -1.222656 2 -1.078125 2.09375 -0.984375 C 2.1875 -0.898438 2.320312 -0.859375 2.5 -0.859375 C 2.632812 -0.859375 2.785156 -0.875 2.953125 -0.90625 C 3.117188 -0.9375 3.269531 -0.972656 3.40625 -1.015625 Z M 3.40625 0" transform="translate(142.774684, 287.115205)"/></g></g></g><g fill="#3b7821" fill-opacity="1"><g><g><path d="M 1.984375 -1 C 1.984375 -0.894531 1.96875 -0.785156 1.9375 -0.671875 C 1.914062 -0.566406 1.875 -0.457031 1.8125 -0.34375 C 1.738281 -0.1875 1.628906 -0.078125 1.484375 -0.015625 C 1.347656 0.046875 1.171875 0.078125 0.953125 0.078125 C 0.703125 0.078125 0.523438 0.0351562 0.421875 -0.046875 C 0.328125 -0.128906 0.28125 -0.25 0.28125 -0.40625 C 0.28125 -0.5 0.289062 -0.597656 0.3125 -0.703125 C 0.332031 -0.816406 0.363281 -0.921875 0.40625 -1.015625 C 0.476562 -1.179688 0.582031 -1.304688 0.71875 -1.390625 C 0.863281 -1.472656 1.050781 -1.515625 1.28125 -1.515625 C 1.53125 -1.515625 1.707031 -1.472656 1.8125 -1.390625 C 1.925781 -1.304688 1.984375 -1.175781 1.984375 -1 Z M 1.984375 -1" transform="translate(148.026619, 287.115205)"/></g></g></g><g fill="#3b7821" fill-opacity="1"><g><g><path d="M 0.0625 0 L 0.328125 -1.265625 C 0.648438 -1.492188 0.992188 -1.742188 1.359375 -2.015625 C 1.722656 -2.296875 2.078125 -2.570312 2.421875 -2.84375 C 2.773438 -3.125 3.101562 -3.394531 3.40625 -3.65625 C 3.71875 -3.914062 3.984375 -4.15625 4.203125 -4.375 C 4.335938 -4.507812 4.460938 -4.644531 4.578125 -4.78125 C 4.703125 -4.925781 4.8125 -5.070312 4.90625 -5.21875 C 5 -5.375 5.070312 -5.53125 5.125 -5.6875 C 5.1875 -5.84375 5.21875 -6.003906 5.21875 -6.171875 C 5.21875 -6.453125 5.132812 -6.671875 4.96875 -6.828125 C 4.8125 -6.984375 4.554688 -7.0625 4.203125 -7.0625 C 3.828125 -7.0625 3.492188 -6.972656 3.203125 -6.796875 C 2.921875 -6.617188 2.660156 -6.390625 2.421875 -6.109375 L 1.515625 -6.9375 C 1.679688 -7.144531 1.863281 -7.328125 2.0625 -7.484375 C 2.257812 -7.648438 2.472656 -7.789062 2.703125 -7.90625 C 2.929688 -8.03125 3.179688 -8.117188 3.453125 -8.171875 C 3.734375 -8.234375 4.039062 -8.265625 4.375 -8.265625 C 4.738281 -8.265625 5.0625 -8.222656 5.34375 -8.140625 C 5.625 -8.066406 5.859375 -7.945312 6.046875 -7.78125 C 6.242188 -7.613281 6.394531 -7.40625 6.5 -7.15625 C 6.601562 -6.90625 6.65625 -6.609375 6.65625 -6.265625 C 6.65625 -6.046875 6.617188 -5.820312 6.546875 -5.59375 C 6.472656 -5.363281 6.375 -5.140625 6.25 -4.921875 C 6.125 -4.703125 5.972656 -4.488281 5.796875 -4.28125 C 5.617188 -4.082031 5.429688 -3.890625 5.234375 -3.703125 C 5.035156 -3.515625 4.820312 -3.328125 4.59375 -3.140625 C 4.375 -2.960938 4.132812 -2.773438 3.875 -2.578125 C 3.625 -2.378906 3.347656 -2.171875 3.046875 -1.953125 C 2.742188 -1.734375 2.414062 -1.5 2.0625 -1.25 L 5.828125 -1.25 L 5.5625 0 Z M 0.0625 0" transform="translate(120.287978, 299.103893)"/></g></g></g><g fill="#3b7821" fill-opacity="1"><g><g><path d="M 7.0625 -5.609375 C 7.0625 -5.367188 7.046875 -5.101562 7.015625 -4.8125 C 6.984375 -4.53125 6.929688 -4.234375 6.859375 -3.921875 C 6.796875 -3.617188 6.71875 -3.3125 6.625 -3 C 6.53125 -2.695312 6.421875 -2.40625 6.296875 -2.125 C 6.109375 -1.675781 5.898438 -1.304688 5.671875 -1.015625 C 5.453125 -0.722656 5.203125 -0.488281 4.921875 -0.3125 C 4.648438 -0.132812 4.351562 -0.0078125 4.03125 0.0625 C 3.71875 0.144531 3.378906 0.1875 3.015625 0.1875 C 2.191406 0.1875 1.585938 -0.03125 1.203125 -0.46875 C 0.816406 -0.90625 0.625 -1.566406 0.625 -2.453125 C 0.625 -2.671875 0.640625 -2.910156 0.671875 -3.171875 C 0.703125 -3.429688 0.742188 -3.703125 0.796875 -3.984375 C 0.859375 -4.265625 0.929688 -4.546875 1.015625 -4.828125 C 1.097656 -5.109375 1.1875 -5.378906 1.28125 -5.640625 C 1.445312 -6.085938 1.640625 -6.472656 1.859375 -6.796875 C 2.078125 -7.128906 2.328125 -7.398438 2.609375 -7.609375 C 2.890625 -7.828125 3.203125 -7.988281 3.546875 -8.09375 C 3.890625 -8.195312 4.269531 -8.25 4.6875 -8.25 C 6.269531 -8.25 7.0625 -7.367188 7.0625 -5.609375 Z M 5.0625 -2.6875 C 5.144531 -2.882812 5.222656 -3.101562 5.296875 -3.34375 C 5.367188 -3.582031 5.429688 -3.828125 5.484375 -4.078125 C 5.535156 -4.328125 5.578125 -4.582031 5.609375 -4.84375 C 5.640625 -5.101562 5.65625 -5.347656 5.65625 -5.578125 C 5.65625 -5.859375 5.628906 -6.09375 5.578125 -6.28125 C 5.535156 -6.46875 5.460938 -6.617188 5.359375 -6.734375 C 5.265625 -6.847656 5.144531 -6.929688 5 -6.984375 C 4.851562 -7.035156 4.679688 -7.0625 4.484375 -7.0625 C 4.242188 -7.0625 4.03125 -7.023438 3.84375 -6.953125 C 3.65625 -6.878906 3.484375 -6.765625 3.328125 -6.609375 C 3.171875 -6.460938 3.03125 -6.28125 2.90625 -6.0625 C 2.789062 -5.84375 2.679688 -5.582031 2.578125 -5.28125 C 2.503906 -5.082031 2.429688 -4.863281 2.359375 -4.625 C 2.296875 -4.394531 2.238281 -4.15625 2.1875 -3.90625 C 2.144531 -3.65625 2.109375 -3.398438 2.078125 -3.140625 C 2.046875 -2.890625 2.03125 -2.644531 2.03125 -2.40625 C 2.03125 -1.894531 2.117188 -1.53125 2.296875 -1.3125 C 2.484375 -1.101562 2.757812 -1 3.125 -1 C 3.34375 -1 3.539062 -1.023438 3.71875 -1.078125 C 3.90625 -1.140625 4.078125 -1.234375 4.234375 -1.359375 C 4.398438 -1.492188 4.550781 -1.671875 4.6875 -1.890625 C 4.820312 -2.109375 4.945312 -2.375 5.0625 -2.6875 Z M 5.0625 -2.6875" transform="translate(128.185855, 299.103893)"/></g></g></g><g fill="#3b7821" fill-opacity="1"><g><g><path d="M 0.0625 0 L 0.328125 -1.265625 C 0.648438 -1.492188 0.992188 -1.742188 1.359375 -2.015625 C 1.722656 -2.296875 2.078125 -2.570312 2.421875 -2.84375 C 2.773438 -3.125 3.101562 -3.394531 3.40625 -3.65625 C 3.71875 -3.914062 3.984375 -4.15625 4.203125 -4.375 C 4.335938 -4.507812 4.460938 -4.644531 4.578125 -4.78125 C 4.703125 -4.925781 4.8125 -5.070312 4.90625 -5.21875 C 5 -5.375 5.070312 -5.53125 5.125 -5.6875 C 5.1875 -5.84375 5.21875 -6.003906 5.21875 -6.171875 C 5.21875 -6.453125 5.132812 -6.671875 4.96875 -6.828125 C 4.8125 -6.984375 4.554688 -7.0625 4.203125 -7.0625 C 3.828125 -7.0625 3.492188 -6.972656 3.203125 -6.796875 C 2.921875 -6.617188 2.660156 -6.390625 2.421875 -6.109375 L 1.515625 -6.9375 C 1.679688 -7.144531 1.863281 -7.328125 2.0625 -7.484375 C 2.257812 -7.648438 2.472656 -7.789062 2.703125 -7.90625 C 2.929688 -8.03125 3.179688 -8.117188 3.453125 -8.171875 C 3.734375 -8.234375 4.039062 -8.265625 4.375 -8.265625 C 4.738281 -8.265625 5.0625 -8.222656 5.34375 -8.140625 C 5.625 -8.066406 5.859375 -7.945312 6.046875 -7.78125 C 6.242188 -7.613281 6.394531 -7.40625 6.5 -7.15625 C 6.601562 -6.90625 6.65625 -6.609375 6.65625 -6.265625 C 6.65625 -6.046875 6.617188 -5.820312 6.546875 -5.59375 C 6.472656 -5.363281 6.375 -5.140625 6.25 -4.921875 C 6.125 -4.703125 5.972656 -4.488281 5.796875 -4.28125 C 5.617188 -4.082031 5.429688 -3.890625 5.234375 -3.703125 C 5.035156 -3.515625 4.820312 -3.328125 4.59375 -3.140625 C 4.375 -2.960938 4.132812 -2.773438 3.875 -2.578125 C 3.625 -2.378906 3.347656 -2.171875 3.046875 -1.953125 C 2.742188 -1.734375 2.414062 -1.5 2.0625 -1.25 L 5.828125 -1.25 L 5.5625 0 Z M 0.0625 0" transform="translate(136.528623, 299.103893)"/></g></g></g><g fill="#3b7821" fill-opacity="1"><g><g><path d="M 2.65625 -4.84375 L 3.21875 -4.84375 C 3.46875 -4.84375 3.703125 -4.875 3.921875 -4.9375 C 4.148438 -5.007812 4.347656 -5.101562 4.515625 -5.21875 C 4.691406 -5.332031 4.832031 -5.472656 4.9375 -5.640625 C 5.039062 -5.804688 5.09375 -5.992188 5.09375 -6.203125 C 5.09375 -6.472656 5.003906 -6.679688 4.828125 -6.828125 C 4.660156 -6.984375 4.398438 -7.0625 4.046875 -7.0625 C 3.679688 -7.0625 3.359375 -6.988281 3.078125 -6.84375 C 2.796875 -6.707031 2.546875 -6.507812 2.328125 -6.25 L 1.421875 -7.03125 C 1.578125 -7.21875 1.75 -7.382812 1.9375 -7.53125 C 2.125 -7.6875 2.328125 -7.816406 2.546875 -7.921875 C 2.773438 -8.035156 3.023438 -8.117188 3.296875 -8.171875 C 3.578125 -8.234375 3.878906 -8.265625 4.203125 -8.265625 C 4.597656 -8.265625 4.9375 -8.21875 5.21875 -8.125 C 5.507812 -8.039062 5.75 -7.914062 5.9375 -7.75 C 6.132812 -7.59375 6.273438 -7.394531 6.359375 -7.15625 C 6.453125 -6.925781 6.5 -6.664062 6.5 -6.375 C 6.5 -6.144531 6.457031 -5.925781 6.375 -5.71875 C 6.300781 -5.507812 6.179688 -5.3125 6.015625 -5.125 C 5.859375 -4.945312 5.648438 -4.785156 5.390625 -4.640625 C 5.140625 -4.503906 4.835938 -4.390625 4.484375 -4.296875 C 4.679688 -4.265625 4.863281 -4.203125 5.03125 -4.109375 C 5.207031 -4.023438 5.359375 -3.910156 5.484375 -3.765625 C 5.617188 -3.628906 5.722656 -3.460938 5.796875 -3.265625 C 5.867188 -3.066406 5.90625 -2.847656 5.90625 -2.609375 C 5.90625 -2.222656 5.832031 -1.863281 5.6875 -1.53125 C 5.550781 -1.195312 5.34375 -0.898438 5.0625 -0.640625 C 4.78125 -0.390625 4.421875 -0.191406 3.984375 -0.046875 C 3.554688 0.0976562 3.050781 0.171875 2.46875 0.171875 C 2.144531 0.171875 1.847656 0.140625 1.578125 0.078125 C 1.316406 0.015625 1.082031 -0.0664062 0.875 -0.171875 C 0.675781 -0.285156 0.503906 -0.414062 0.359375 -0.5625 C 0.222656 -0.71875 0.125 -0.890625 0.0625 -1.078125 L 1.234375 -1.8125 C 1.285156 -1.707031 1.347656 -1.609375 1.421875 -1.515625 C 1.503906 -1.421875 1.601562 -1.335938 1.71875 -1.265625 C 1.832031 -1.191406 1.960938 -1.132812 2.109375 -1.09375 C 2.265625 -1.0625 2.429688 -1.046875 2.609375 -1.046875 C 2.953125 -1.046875 3.238281 -1.09375 3.46875 -1.1875 C 3.707031 -1.28125 3.898438 -1.398438 4.046875 -1.546875 C 4.191406 -1.691406 4.296875 -1.851562 4.359375 -2.03125 C 4.429688 -2.21875 4.46875 -2.40625 4.46875 -2.59375 C 4.46875 -2.976562 4.347656 -3.253906 4.109375 -3.421875 C 3.867188 -3.597656 3.515625 -3.6875 3.046875 -3.6875 L 2.40625 -3.6875 Z M 2.65625 -4.84375" transform="translate(144.426499, 299.103893)"/></g></g></g></svg>